<mxfile host="app.diagrams.net" modified="2024-06-07T05:23:39.865Z" agent="Mozilla/5.0 (Windows NT 10.0; Win64; x64) AppleWebKit/537.36 (KHTML, like Gecko) Chrome/127.0.0.0 Safari/537.36 Edg/127.0.0.0" version="24.4.4" etag="osRcMDxh4sifm1BaSzaH" type="github">
  <diagram name="第 1 页" id="JpJuvLmKtG-MRXJeiW7m">
    <mxGraphModel>
      <root>
        <mxCell id="0" />
        <mxCell id="1" parent="0" />
      </root>
    </mxGraphModel>
  </diagram>
</mxfile>
